{"title":"The Avengers HDR Edition .mp4","uid":7638794,"size":1961822686,"categoryP":"video","categoryS":"movies","magnet":"?xt=urn:btih:b616321000b1ee8b72603f667ae6c82423974b2f&amp;dn=The+Avengers+HDR+Edition+.mp4&amp;tr=udp%3A%2F%2Ftracker.openbittorrent.com%3A80&amp;tr=udp%3A%2F%2Fopen.demonii.com%3A1337&amp;tr=udp%3A%2F%2Ftracker.coppersurfer.tk%3A6969&amp;tr=udp%3A%2F%2Fexodus.desync.com%3A6969","seeders":2,"leechers":0,"uploader":"GTzone","files":1,"time":1347722173,"description":"General\n\nFormat                         : MPEG-4\nFormat profile                 : Base Media / Version 2\nCodec ID                       : mp42\nFile size                      : 1.83 GiB\nDuration                       : 2h 22mn\nOverall bit rate mode          : Variable\nOverall bit rate               : 1 830 Kbps\nEncoded date                   : UTC 2012-09-15 04:47:00\nTagged date                    : UTC 2012-09-15 04:47:00\n\nVideo\nID                             : 1\nFormat                         : AVC\nFormat/Info                    : Advanced Video Codec\nFormat profile                 : &lt;a class=&quot;__cf_email__&quot; href=&quot;/cdn-cgi/l/email-protection&quot; data-cfemail=&quot;baf2d3ddd2faf689948b&quot;&gt;[email&amp;#160;protected]&lt;/a&gt;&lt;script cf-hash='f9e31' type=&quot;text/javascript&quot;&gt;\n/* &lt;![CDATA[ */!function(){try{var t=&quot;currentScript&quot;in document?document.currentScript:function(){for(var t=document.getElementsByTagName(&quot;script&quot;),e=t.length;e--;)if(t[e].getAttribute(&quot;cf-hash&quot;))return t[e]}();if(t&amp;&amp;t.previousSibling){var e,r,n,i,c=t.previousSibling,a=c.getAttribute(&quot;data-cfemail&quot;);if(a){for(e=&quot;&quot;,r=parseInt(a.substr(0,2),16),n=2;a.length-n;n+=2)i=parseInt(a.substr(n,2),16)^r,e+=String.fromCharCode(i);e=document.createTextNode(e),c.parentNode.replaceChild(e,c)}}}catch(u){}}();/* ]]&gt; */&lt;/script&gt;\nFormat settings, CABAC         : No\nFormat settings, ReFrames      : 1 frame\nCodec ID                       : avc1\nCodec ID/Info                  : Advanced Video Coding\nDuration                       : 2h 22mn\nSource duration                : 2h 22mn\nBit rate mode                  : Variable\nBit rate                       : 1 699 Kbps\nWidth                          : 1 280 pixels\nHeight                         : 720 pixels\nDisplay aspect ratio           : 16:9\nFrame rate mode                : Variable\nFrame rate                     : 29.970 fps\nMinimum frame rate             : 29.940 fps\nMaximum frame rate             : 29.970 fps\nStandard                       : NTSC\nColor space                    : YUV\nChroma subsampling             : 4:2:0\nBit depth                      : 8 bits\nScan type                      : Progressive\nBits/(Pixel*Frame)             : 0.062\nStream size                    : 1.70 GiB (93%)\nSource stream size             : 1.70 GiB (93%)\nLanguage                       : English\n\n\nAudio\nID                             : 2\nFormat                         : AAC\nFormat/Info                    : Advanced Audio Codec\nFormat profile                 : LC\nCodec ID                       : 40\nDuration                       : 2h 22mn\nBit rate mode                  : Variable\nBit rate                       : 128 Kbps\nMaximum bit rate               : 529 Kbps\nChannel(s)                     : 2 channels\nChannel positions              : Front: L R\nSampling rate                  : 44.1 KHz\nCompression mode               : Lossy\nStream size                    : 131 MiB (7%)\nLanguage                       : English","torrent":{"xt":"urn:btih:b616321000b1ee8b72603f667ae6c82423974b2f","amp;dn":"The+Avengers+HDR+Edition+.mp4","amp;tr":["udp%3A%2F%2Ftracker.openbittorrent.com%3A80","udp%3A%2F%2Fopen.demonii.com%3A1337","udp%3A%2F%2Ftracker.coppersurfer.tk%3A6969","udp%3A%2F%2Fexodus.desync.com%3A6969"],"infoHash":"b616321000b1ee8b72603f667ae6c82423974b2f","infoHashBuffer":{"type":"Buffer","data":[182,22,50,16,0,177,238,139,114,96,63,102,122,230,200,36,35,151,75,47]},"announce":[],"urlList":[]}}